<mxfile host="Electron" modified="2024-07-25T08:07:32.912Z" agent="Mozilla/5.0 (Windows NT 10.0; Win64; x64) AppleWebKit/537.36 (KHTML, like Gecko) draw.io/21.6.1 Chrome/112.0.5615.204 Electron/24.6.1 Safari/537.36" etag="yJxApFQY_q1sfdMFKGHl" version="21.6.1" type="device">
  <diagram name="第 1 页" id="56AqnG4KWg7CC04EKh2M">
    <mxGraphModel dx="2740" dy="1156" grid="1" gridSize="10" guides="1" tooltips="1" connect="1" arrows="1" fold="1" page="1" pageScale="1" pageWidth="1169" pageHeight="827" math="0" shadow="0">
      <root>
        <mxCell id="0" />
        <mxCell id="1" parent="0" />
        <mxCell id="l0_PR2QTMXm8nSv0k1bN-1" value="Track -- ReactiveEffect" style="text;html=1;strokeColor=none;fillColor=none;align=center;verticalAlign=middle;whiteSpace=wrap;rounded=0;fontSize=26;fontStyle=1" vertex="1" parent="1">
          <mxGeometry x="-1120" y="40" width="320" height="80" as="geometry" />
        </mxCell>
        <mxCell id="l0_PR2QTMXm8nSv0k1bN-2" value="开始" style="rounded=1;whiteSpace=wrap;html=1;fontSize=16;" vertex="1" parent="1">
          <mxGeometry x="280" y="40" width="120" height="40" as="geometry" />
        </mxCell>
        <mxCell id="l0_PR2QTMXm8nSv0k1bN-3" value="Class BaseReactiveHandler" style="rounded=1;whiteSpace=wrap;html=1;fontSize=16;" vertex="1" parent="1">
          <mxGeometry x="200" y="140" width="280" height="80" as="geometry" />
        </mxCell>
        <mxCell id="l0_PR2QTMXm8nSv0k1bN-4" value="" style="endArrow=classic;html=1;rounded=0;exitX=0.5;exitY=1;exitDx=0;exitDy=0;" edge="1" parent="1" source="l0_PR2QTMXm8nSv0k1bN-2" target="l0_PR2QTMXm8nSv0k1bN-3">
          <mxGeometry width="50" height="50" relative="1" as="geometry">
            <mxPoint x="160" y="510" as="sourcePoint" />
            <mxPoint x="210" y="460" as="targetPoint" />
          </mxGeometry>
        </mxCell>
      </root>
    </mxGraphModel>
  </diagram>
</mxfile>
